<?xml version="1.0" encoding="UTF-8" standalone="no"?>
<!-- Generator: Adobe Illustrator 16.0.0, SVG Export Plug-In . SVG Version: 6.00 Build 0)  -->
<svg xmlns:dc="http://purl.org/dc/elements/1.1/" xmlns:cc="http://creativecommons.org/ns#" xmlns:rdf="http://www.w3.org/1999/02/22-rdf-syntax-ns#" xmlns:svg="http://www.w3.org/2000/svg" xmlns="http://www.w3.org/2000/svg" xmlns:sodipodi="http://sodipodi.sourceforge.net/DTD/sodipodi-0.dtd" xmlns:inkscape="http://www.inkscape.org/namespaces/inkscape" version="1.1" id="Layer_1" x="0px" y="0px" width="1000" height="1000.001" viewBox="0 0 1000 1000.001" enable-background="new 0 0 1000 1000" xml:space="preserve" inkscape:version="0.92.3 (2405546, 2018-03-11)" sodipodi:docname="EA (2006).svg"><metadata id="metadata6407"><rdf:RDF><cc:Work rdf:about=""><dc:format>image/svg+xml</dc:format><dc:type rdf:resource="http://purl.org/dc/dcmitype/StillImage"/><dc:title/></cc:Work></rdf:RDF></metadata><defs id="defs6405"/><sodipodi:namedview pagecolor="#ffffff" bordercolor="#666666" borderopacity="1" objecttolerance="10" gridtolerance="10" guidetolerance="10" inkscape:pageopacity="0" inkscape:pageshadow="2" inkscape:window-width="1360" inkscape:window-height="706" id="namedview6403" showgrid="false" inkscape:zoom="0.3337544" inkscape:cx="592.11896" inkscape:cy="324.82794" inkscape:window-x="-8" inkscape:window-y="-8" inkscape:window-maximized="1" inkscape:current-layer="Layer_1"/>

<g id="g6397" transform="matrix(1.1510805,0,0,1.1510666,-75.547713,-75.547537)">
	<g id="g6399">
		<path d="m 500.006,934.393 c -239.516,0 -434.374,-194.862 -434.374,-434.379 0,-239.52 194.858,-434.381 434.374,-434.381 239.513,0 434.375,194.862 434.375,434.381 0,239.516 -194.861,434.379 -434.375,434.379 z M 573.527,331.999 H 328.041 l -37.247,59.858 h 245.204 z m 50.168,0.571 -150.071,238.963 H 307.16 l 38.405,-59.909 h 99.771 l 38.112,-59.88 H 252.794 l -38.104,59.88 h 54.641 l -75.812,119.611 h 316.389 l 116.86,-184.295 42.609,64.684 h -38.42 l -36.385,59.909 h 113.773 l 39.506,59.702 h 72.576 z" id="path6401" inkscape:connector-curvature="0" style="clip-rule:evenodd;fill-rule:evenodd" sodipodi:nodetypes="ssssscccccccccccccccccccccccc"/>
	</g>
</g>
</svg>