<?xml version="1.0" encoding="UTF-8" standalone="no"?>
<!-- Created with Inkscape (http://www.inkscape.org/) -->
<svg xmlns:dc="http://purl.org/dc/elements/1.1/" xmlns:cc="http://creativecommons.org/ns#" xmlns:rdf="http://www.w3.org/1999/02/22-rdf-syntax-ns#" xmlns:svg="http://www.w3.org/2000/svg" xmlns="http://www.w3.org/2000/svg" xmlns:sodipodi="http://sodipodi.sourceforge.net/DTD/sodipodi-0.dtd" xmlns:inkscape="http://www.inkscape.org/namespaces/inkscape" width="1000" height="386.97101" id="svg2" version="1.1" inkscape:version="0.91 r13725" sodipodi:docname="NBC_Universal.svg">
  <metadata id="metadata4165">
    <rdf:RDF>
      <cc:Work rdf:about="">
        <dc:format>image/svg+xml</dc:format>
        <dc:type rdf:resource="http://purl.org/dc/dcmitype/StillImage"/>
        <dc:title/>
      </cc:Work>
    </rdf:RDF>
  </metadata>
  <defs id="defs4163"/>
  <sodipodi:namedview pagecolor="#ffffff" bordercolor="#666666" borderopacity="1" objecttolerance="10" gridtolerance="10" guidetolerance="10" inkscape:pageopacity="0" inkscape:pageshadow="2" inkscape:window-width="1366" inkscape:window-height="705" id="namedview4161" showgrid="false" inkscape:zoom="0.83714941" inkscape:cx="509.83919" inkscape:cy="178.69225" inkscape:window-x="-8" inkscape:window-y="-8" inkscape:window-maximized="1" inkscape:current-layer="layer1"/>
  <g inkscape:label="Layer 1" inkscape:groupmode="layer" id="layer1" transform="translate(-307.90356,90.983163)">
    <path id="path3861" d="M 991.38732,156.73586 C 966.7256,229.97434 893.20267,283.1094 808.23068,283.1094 c -84.97912,0 -158.26025,-53.13506 -182.85086,-126.37354 l -1.69247,0 c 22.89814,80.37103 96.82639,139.25197 184.54333,139.25197 87.7098,0 161.65942,-58.88094 184.54333,-139.25197 z M 808.23068,-80.451841 c 85.84666,0 159.83894,54.329735 183.76819,128.727339 l 0.62581,0 c -22.91238,-80.349692 -96.6842,-139.259059 -184.394,-139.259059 -87.71694,0 -161.64519,58.880918 -184.54333,139.259059 l 0.91023,0 c 23.80837,-74.440267 97.75086,-128.727339 183.6331,-128.727339" style="fill:#000000;fill-rule:nonzero;stroke:none" inkscape:connector-curvature="0"/>
    <path id="path3865" d="m 713.54618,77.75224 c 0,-0.960019 -0.32,-1.728026 -3.02228,-1.941379 l 0,-1.294234 22.22969,0 0,1.294234 c -2.69515,0.213353 -3.02939,0.98136 -3.02939,1.941379 l 0,28.9 c 0,18.97274 -13.25532,25.25195 -29.76756,25.25195 -16.48383,0 -29.76048,-6.27921 -29.76048,-25.25195 l 0,-28.9 c 0,-0.960019 -0.32,-1.728026 -3.02226,-1.941379 l 0,-1.294234 22.22967,0 0,1.294234 c -2.70937,0.213353 -3.02939,0.98136 -3.02939,1.941379 l 0,28.9 c 0,8.31303 4.95654,11.65529 13.58246,11.65529 8.633,0 13.58954,-3.34226 13.58954,-11.65529 z" style="fill:#000000;fill-rule:nonzero;stroke:none" inkscape:connector-curvature="0"/>
    <path id="path3869" d="m 813.27324,127.10341 c 0,1.79914 1.52891,2.18314 3.58407,2.30402 l 0,1.54314 -23.73016,0 0,-1.54314 c 1.28002,0 3.71205,-0.12088 3.71205,-1.67113 0,-2.94404 -16.41981,-17.56471 -30.9196,-34.517872 l -0.25599,0.256015 0,33.628967 c 0,1.79914 1.54314,2.18314 3.33517,2.30402 l 0,1.54314 -21.94525,0 0,-1.54314 c 1.67115,-0.12088 3.21427,-0.50488 3.21427,-2.30402 l 0,-48.768775 c 0,-1.784904 -1.54312,-2.190249 -3.46316,-2.311149 l 0,-1.528908 30.52849,0 0,1.528908 c -1.15203,0.120881 -2.68805,0.526245 -2.68805,2.311149 0,0.910249 12.44464,13.617988 23.22525,25.280405 l 0,-25.280405 c 0,-1.784904 -1.53601,-2.190249 -3.59117,-2.311149 l 0,-1.528908 22.57815,0 0,1.528908 c -2.05516,0.120881 -3.58407,0.526245 -3.58407,2.311149 z" style="fill:#000000;fill-rule:nonzero;stroke:none" inkscape:connector-curvature="0"/>
    <path id="path3873" d="m 861.24625,74.494578 0,1.528908 c -2.57425,0.120881 -4.09605,0.526245 -4.09605,2.311149 l 0,48.768775 c 0,1.79914 1.5218,2.18314 4.09605,2.30402 l 0,1.53604 -25.39416,0 0,-1.53604 c 2.56004,-0.12088 4.08895,-0.50488 4.08895,-2.30402 l 0,-48.768775 c 0,-1.784904 -1.52891,-2.190249 -4.08895,-2.311149 l 0,-1.528908 z" style="fill:#000000;fill-rule:nonzero;stroke:none" inkscape:connector-curvature="0"/>
    <path id="path3877" d="m 875.37129,74.494578 24.23504,0 0,1.528908 c -1.02403,0 -3.20006,0 -3.20006,1.294252 0,1.415134 10.66684,28.871552 11.56285,32.725842 l 0.23468,0 c 4.48718,-10.90862 13.34776,-31.588045 13.34776,-32.725842 0,-1.294252 -2.16893,-1.294252 -2.92983,-1.294252 l 0,-1.528908 21.41189,0 0,1.528908 c -1.41513,0.120881 -2.31114,0.526245 -2.67381,1.799157 -1.68536,5.397413 -19.90431,48.519867 -19.90431,49.529657 0,1.40092 1.52891,2.19025 2.69516,2.05513 l 0,1.53604 -27.07244,0 0,-1.53604 c 1.15914,0.13506 2.68094,-0.65421 2.68094,-2.05513 0,-0.51912 -16.42693,-49.529657 -18.20473,-50.667454 -1.04534,-0.66136 -1.55736,-0.66136 -2.18314,-0.66136 z" style="fill:#000000;fill-rule:nonzero;stroke:none" inkscape:connector-curvature="0"/>
    <path id="path3881" d="m 1006.2348,119.37778 c 1.529,0 2.8303,-0.89602 3.3494,-3.22138 l 1.5503,0 0,17.19492 -1.3085,0 c -0.8818,-2.31826 -1.536,-2.69515 -3.5912,-2.69515 l -57.23819,0 0,-1.5218 c 1.80625,-0.13506 3.60539,-0.51912 3.60539,-2.31826 l 0,-48.75454 c 0,-1.799138 -1.79914,-2.183142 -3.60539,-2.318257 l 0,-1.543142 58.26939,0 c 1.024,0 2.3182,-0.49067 2.3182,-2.823141 l 1.5503,0 0,17.20203 -1.5503,0 c 0,-2.560038 -1.2942,-3.079157 -2.3182,-3.079157 l -37.47617,0 0,10.389502 24.13548,0 c 1.01691,0 2.31826,-0.497778 2.31826,-2.95115 l 1.53603,0 0,16.697145 -1.53603,0 c 0,-2.46048 -1.30135,-2.95828 -2.31826,-2.95828 l -24.13548,0 0,12.70066 z" style="fill:#000000;fill-rule:nonzero;stroke:none" inkscape:connector-curvature="0"/>
    <path id="path3885" d="m 1027.6446,77.852509 c 0,-1.792031 -1.5289,-2.176035 -2.8232,-2.304043 l 0,-1.550249 41.1953,0 c 12.594,0 21.0564,6.165422 21.0564,17.849176 0,9.230367 -6.2934,14.250877 -14.258,17.330037 l 11.4206,17.1736 c 0.9173,1.42224 2.6809,2.58138 4.4943,2.58138 l 0,1.5218 -25.9133,0 0,-1.5218 c 1.1449,0 3.0863,-0.39824 3.0863,-1.66402 0,-1.68537 -8.7397,-15.6518 -9.7637,-17.82073 l -12.3238,0 0,17.18071 c 0,1.79203 1.5503,2.16893 3.3494,2.30404 l 0,1.5218 -22.0661,0 0,-1.5218 c 1.0169,-0.13506 2.5458,-0.51201 2.5458,-2.30404 z m 16.1709,20.793198 18.2545,0 c 5.3619,0 8.8322,-2.289808 8.8322,-6.933429 0,-3.975172 -2.1974,-6.912107 -9.7638,-6.912107 l -17.3229,0 z" style="fill:#000000;fill-rule:nonzero;stroke:none" inkscape:connector-curvature="0"/>
    <path id="path3889" d="m 1104.4031,111.50921 1.6712,0.76801 c 0,0.39111 -0.128,0.74667 -0.128,1.38669 0,3.33515 14.7629,6.68454 25.1737,6.68454 3.1716,0 11.6553,-0.512 11.6553,-5.51119 0,-10.02682 -41.9775,-0.27734 -41.9775,-21.810116 0,-7.971685 7.5948,-19.143409 28.4875,-19.143409 12.2029,0 22.7133,3.356494 25.5364,3.356494 1.4436,0 2.1761,-1.03113 2.8303,-1.550249 l 1.4222,0.519119 -7.7085,16.170919 -1.6569,-0.768008 c 0,-0.384004 0.1208,-0.896015 0.1208,-1.429368 0,-1.265785 -9.0952,-4.721839 -17.7282,-4.721839 -3.1859,0 -14.5852,0 -14.5852,5.632088 0,9.102359 41.9278,-0.270229 41.9278,22.073239 0,10.01971 -8.569,18.73806 -28.2244,18.73806 -12.3025,0 -26.6742,-4.60808 -27.7054,-4.60808 -1.152,0 -2.0551,0.86759 -2.9582,1.79916 l -1.3938,-0.41246 z" style="fill:#000000;fill-rule:nonzero;stroke:none" inkscape:connector-curvature="0"/>
    <path id="path3893" d="m 1218.0298,130.94703 0,-1.53604 c 0.4978,0 1.6498,0 1.6498,-1.15201 0,-1.42937 -2.8089,-6.41433 -3.7192,-8.73969 l -29.7818,0 c -0.7466,2.32536 -3.712,7.31032 -3.712,8.73969 0,1.15201 1.1449,1.15201 1.6711,1.15201 l 0,1.53604 -19.2501,0 0,-1.53604 c 1.0312,0 2.1832,-0.384 2.5743,-1.28002 10.2615,-23.99325 22.1799,-49.024764 22.1799,-50.809668 0,-0.910249 -0.3769,-1.173353 -1.6427,-1.294253 l 0,-1.528908 26.7951,0 0,1.528908 c -1.2658,0.120881 -1.6569,0.384004 -1.6569,1.294253 0,1.536015 17.97,37.575688 23.6021,50.809668 0.4053,0.89602 1.5503,1.28002 2.5601,1.28002 l 0,1.53604 z m -6.4286,-20.6581 -10.7806,-22.443031 -10.5104,22.443031 z" style="fill:#000000;fill-rule:nonzero;stroke:none" inkscape:connector-curvature="0"/>
    <path id="path3897" d="m 1251.7178,78.008945 c 0,-1.770689 -1.536,-2.176034 -3.4632,-2.296915 l 0,-1.543142 24.0146,0 0,1.543142 c -1.8276,0.120881 -3.3636,0.526226 -3.3636,2.296915 l 0,39.538395 35.1579,0 c 1.0596,0 2.304,-0.50489 2.304,-3.22138 l 1.5361,0 0,19.51319 -1.5361,0 c 0,-2.70226 -1.2444,-3.22137 -2.304,-3.22137 l -55.8089,0 0,-1.52181 c 1.9272,-0.11379 3.4632,-0.51201 3.4632,-2.30404 z" style="fill:#000000;fill-rule:nonzero;stroke:none" inkscape:connector-curvature="0"/>
    <path id="path3901" d="m 310.9045,77.664769 c 0,-0.945805 -0.32,-1.713812 -3.00094,-1.927146 l 0,-1.287126 25.84218,0 0,1.287126 c -2.46758,0.106705 -3.00094,0.746686 -3.00094,1.379579 0,1.201801 18.55318,20.906992 26.04841,29.170228 l 0,-28.622661 c 0,-1.280019 -0.86756,-1.820479 -2.26136,-1.927146 l 0,-1.287126 19.63408,0 0,1.287126 c -2.68093,0.213334 -3.00093,0.981341 -3.00093,1.927146 l 0,49.963451 c 0,0.96712 0.32,1.72092 3.00093,1.92714 l 0,1.28713 -20.37365,0 0,-1.28713 c 1.93425,0 2.47471,-0.41958 2.47471,-1.16624 0,-1.41514 -2.68805,-2.81606 -30.99071,-34.425443 l 0,33.664543 c 0,0.96712 0.32,1.72092 2.99383,1.92714 l 0,1.28713 -20.36655,0 0,-1.28713 c 2.68094,-0.20622 3.00094,-0.96002 3.00094,-1.92714 z" style="fill:#000000;fill-rule:nonzero;stroke:none" inkscape:connector-curvature="0"/>
    <path id="path3905" d="m 390.93348,77.664769 c 0,-0.945805 -0.32711,-1.713812 -3.00804,-1.927146 l 0,-1.287126 40.84685,0 c 11.56996,0 20.04654,4.280958 20.04654,14.905115 0,6.421436 -4.28807,10.382394 -10.29705,11.690838 l 0,0.19912 c 7.18946,1.94849 12.43752,5.78855 12.43752,13.73178 0,8.56903 -6.42854,15.86514 -21.65365,15.86514 l -41.38021,0 0,-1.28713 c 2.68093,-0.20622 3.00804,-0.96002 3.00804,-1.92714 z m 16.07849,18.005613 14.58511,0 c 9.19481,0 11.57707,-0.625786 11.57707,-4.956533 0,-4.273831 -2.38226,-4.906743 -11.57707,-4.906743 l -14.58511,0 z m 0,23.794138 18.22605,0 c 7.50234,0 10.50328,-1.69958 10.50328,-6.42142 0,-4.69341 -3.00094,-6.44278 -10.50328,-6.44278 l -18.22605,0 z" style="fill:#000000;fill-rule:nonzero;stroke:none" inkscape:connector-curvature="0"/>
    <path id="path3909" d="m 514.26838,95.238025 -1.088,-0.732471 c 0.1067,-0.440881 0.23467,-0.853333 0.23467,-1.62136 0,-2.168908 -8.27036,-4.928065 -17.37272,-4.928065 -8.68992,0 -19.94697,3.761839 -19.94697,14.670441 0,10.95841 11.25705,14.71312 19.94697,14.71312 3.74761,0 17.99851,-2.9227 17.99851,-6.00898 0,-0.65424 -0.42669,-1.0809 -0.62579,-1.61424 l 1.15912,-0.7609 11.05084,16.84648 -1.29423,0.74668 c -0.32002,-0.74668 -0.73247,-0.85335 -1.48625,-0.85335 -2.15471,0 -12.13176,5.80276 -28.08933,5.80276 -17.1736,0 -35.38544,-9.65705 -35.38544,-28.87157 0,-19.186073 18.21184,-28.835996 35.38544,-28.835996 8.5619,0 14.68468,1.0809 18.96564,2.268467 4.1885,1.180479 6.32898,2.040939 7.40277,2.040939 0.64,0 1.18757,-0.334234 1.62136,-0.86046 l 1.16623,0.327107 z" style="fill:#000000;fill-rule:nonzero;stroke:none" inkscape:connector-curvature="0"/>
    <path id="path3913" d="m 637.62108,104.51958 c 6.22232,1.16624 10.92994,6.62766 10.92994,13.18421 0,7.08989 -5.5112,12.89264 -12.49442,13.3691 l -76.58785,0.0498 c -7.40278,0 -13.40466,-5.99475 -13.40466,-13.40466 0,-6.66319 4.85696,-12.18151 11.22862,-13.21264 -2.41071,-2.43916 -3.89695,-5.77431 -3.89695,-9.45793 0,-7.402778 6.00188,-13.404655 13.42599,-13.404655 2.06935,0 4.03205,0.476456 5.79564,1.322701 -0.0569,-0.476456 -0.0782,-0.967126 -0.0782,-1.45069 0,-7.409904 5.99477,-13.411781 13.40465,-13.411781 4.87119,0 9.1237,2.60272 11.49174,6.485441 2.32537,-3.896954 6.59209,-6.499655 11.47041,-6.499655 7.40277,0 13.41176,6.008984 13.41176,13.411762 0,0.526226 -0.0285,1.045345 -0.0996,1.564463 1.77069,-0.86044 3.75471,-1.344004 5.85253,-1.344004 7.4099,0 13.40465,6.001859 13.40465,13.404636 0,3.655173 -1.47913,6.983242 -3.85427,9.393932" style="fill:#ffffff;fill-rule:nonzero;stroke:none" inkscape:connector-curvature="0"/>
    <path id="path3917" d="m 604.01344,82.147681 c -0.56891,0.739559 -4.09607,1.955575 -4.28807,3.818716 -0.18486,2.979617 4.28807,30.855593 4.28807,30.855593 0,0 6.81255,-15.28201 9.97705,-22.002106 3.82582,-8.20636 5.68186,-11.001073 4.66496,-15.189579 -1.03113,-5.973429 -6.24366,-8.668582 -10.91573,-8.20634 -5.21253,0.832011 -8.85346,4.842739 -8.85346,10.161934 l 4.01072,0 c 0,0 1.02401,0.09962 1.11646,0.561782" style="fill:#5f53ae;fill-rule:evenodd;stroke:none" inkscape:connector-curvature="0"/>
    <path id="path3921" d="m 634.12804,87.175305 c -3.54138,-2.602701 -12.02508,-4.003601 -15.65891,4.572529 l -14.45711,31.979156 29.2769,-19.85452 c 8.1068,-6.072989 4.48007,-13.895345 0.83912,-16.697165" style="fill:#3e87cf;fill-rule:evenodd;stroke:none" inkscape:connector-curvature="0"/>
    <path id="path3925" d="m 595.90878,82.612757 c 1.21602,-7.552126 -6.15833,-11.655306 -11.20017,-11.185957 -4.28096,0.824904 -10.99396,5.404521 -8.39124,13.418869 l 14.26511,32.263621 z" style="fill:#cb1847;fill-rule:evenodd;stroke:none" inkscape:connector-curvature="0"/>
    <path id="path3929" d="m 560.9429,128.00937 30.67069,0 -26.85197,-18.73096 c -6.62054,-4.20272 -13.60375,0.45511 -14.91222,5.30498 -1.68537,5.52542 0.44801,13.04908 11.0935,13.42598" style="fill:#f9b10c;fill-rule:evenodd;stroke:none" inkscape:connector-curvature="0"/>
    <path id="path3933" d="m 560.662,103.1272 29.92403,20.5941 c 0,0 -12.39487,-27.875976 -14.81979,-33.273409 -3.17161,-6.627662 -11.2855,-6.343199 -15.10424,-3.46316 -4.47295,3.363601 -6.05875,11.200172 0,16.142469" style="fill:#f35d1b;fill-rule:evenodd;stroke:none" inkscape:connector-curvature="0"/>
    <path id="path3937" d="m 602.89484,128.00937 c 0,0 28.62268,0.0854 32.6263,-0.0852 7.9219,-0.3769 10.16904,-7.81523 9.69969,-11.37795 -1.21601,-5.78144 -6.99032,-12.02508 -15.66601,-6.8979 z" style="fill:#34b43f;fill-rule:evenodd;stroke:none" inkscape:connector-curvature="0"/>
  </g>
</svg>