<?xml version="1.0" encoding="UTF-8" standalone="no"?>
<!-- Created with Inkscape (http://www.inkscape.org/) -->
<svg xmlns:dc="http://purl.org/dc/elements/1.1/" xmlns:cc="http://creativecommons.org/ns#" xmlns:rdf="http://www.w3.org/1999/02/22-rdf-syntax-ns#" xmlns:svg="http://www.w3.org/2000/svg" xmlns="http://www.w3.org/2000/svg" xmlns:sodipodi="http://sodipodi.sourceforge.net/DTD/sodipodi-0.dtd" xmlns:inkscape="http://www.inkscape.org/namespaces/inkscape" width="131.00034" height="31.309401" viewBox="0 0 34.660507 8.2839453" version="1.1" id="svg804" inkscape:version="0.92.0 r15299" sodipodi:docname="progress software.svg">
  <defs id="defs798"/>
  <sodipodi:namedview id="base" pagecolor="#ffffff" bordercolor="#666666" borderopacity="1.0" inkscape:pageopacity="0.0" inkscape:pageshadow="2" inkscape:zoom="6.8999821" inkscape:cx="65.000169" inkscape:cy="15.1547" inkscape:document-units="mm" inkscape:current-layer="layer1" showgrid="false" fit-margin-top="0" fit-margin-left="0" fit-margin-right="0" fit-margin-bottom="0" units="px" inkscape:window-width="1280" inkscape:window-height="744" inkscape:window-x="-4" inkscape:window-y="-4" inkscape:window-maximized="1"/>
  <metadata id="metadata801">
    <rdf:RDF>
      <cc:Work rdf:about="">
        <dc:format>image/svg+xml</dc:format>
        <dc:type rdf:resource="http://purl.org/dc/dcmitype/StillImage"/>
        <dc:title/>
      </cc:Work>
    </rdf:RDF>
  </metadata>
  <g inkscape:label="Layer 1" inkscape:groupmode="layer" id="layer1" transform="translate(4.724747,-144.55907)">
    <path inkscape:connector-curvature="0" class="PRGS-branding-shape" d="m 1.8245145,146.64048 v 0 3.42615 a 0.26401488,0.26401488 0 0 1 -0.11958,0.20691 l -0.11219,0.0672 -0.85452004,0.49377 -0.57707,0.33589 -0.11958,0.0672 v -3.70561 l -3.20780996,-1.85415 1.5236299,-0.87803 0.1404001,-0.0799 a 0.26468668,0.26468668 0 0 1 0.23916,0 l 2.11212006,1.21998 0.97477004,0.56296 v 0.13772 z m -2.49638004,1.30261 -0.65768986,-0.38024 -1.5390801,-0.88878 a 0.26871745,0.26871745 0 0 0 -0.23916,0 l -1.36575,0.78869 -0.11891,0.0692 2.31702,1.33754 v 2.67576 l 1.36373996,-0.78802 0.12025,-0.0672 a 0.26468668,0.26468668 0 0 0 0.11958,-0.20691 v -2.54005 z m -3.92058996,2.26461 1.6029,0.92574 v -1.85281 z" id="path739" style="fill:#5ce500;fill-opacity:1;stroke-width:0.06717936"/>
    <path inkscape:connector-curvature="0" class="PRGS-branding-text" d="M 5.3561345,146.50276 H 3.6094746 v 4.7348 h 0.77592 v -1.85818 h 0.9787999 c 1.05942,0 1.64254,-0.51728 1.64254,-1.45712 0,-0.42659 -0.16123,-1.41883 -1.6492499,-1.41883 m 0.8585499,1.4316 c 0,0.53407 -0.27678,0.75173 -0.9566399,0.75173 h -0.87333 v -1.48466 h 0.9788001 c 0.5750598,0 0.8538498,0.23983 0.8538498,0.73293 m 3.09496,-0.14713 0.0584,0.0282 -0.13436,0.70001 -0.0907,-0.0282 a 0.76047036,0.76047036 0 0 0 -0.22438,-0.0343 c -0.72486,0 -0.78398,0.57707 -0.78398,1.27641 v 1.5075 h -0.71479 v -3.4772 h 0.6718 v 0.4192 c 0.1834,-0.28215 0.40307,-0.42793 0.69665,-0.46354 a 0.97745971,0.97745971 0 0 1 0.52131,0.0719 m 1.7661395,-0.0947 c -0.56565,0 -1.01844,0.21498 -1.3099895,0.62275 -0.30634,0.42794 -0.35135,0.93044 -0.35135,1.19177 0,1.09905 0.6516395,1.80846 1.6613395,1.80846 1.2267,0 1.66135,-0.9882 1.66135,-1.83399 0,-0.48705 -0.14444,-0.92842 -0.40308,-1.24349 -0.29626,-0.35672 -0.73024,-0.5455 -1.25625,-0.5455 m 0,2.98142 c -0.56229,0 -0.91163,-0.44741 -0.91163,-1.1669 0,-0.7195 0.34934,-1.179 0.91163,-1.179 0.56229,0 0.91901,0.4548 0.91901,1.16354 0,0.72756 -0.35202,1.17967 -0.91767,1.17967 m 7.6954,-2.88401 0.0584,0.0282 -0.13436,0.70001 -0.0907,-0.0282 a 0.7564396,0.7564396 0 0 0 -0.2237,-0.0343 c -0.7242,0 -0.78332,0.57707 -0.78332,1.27641 v 1.5075 h -0.71613 v -3.4772 h 0.6718 v 0.4192 c 0.1834,-0.28215 0.40307,-0.42793 0.69665,-0.46354 a 0.9767879,0.9767879 0 0 1 0.51929,0.0712 m 2.57969,2.33516 -0.0134,0.0383 c -0.14981,0.42726 -0.50854,0.51728 -0.78264,0.51728 -0.54348,0 -0.89348,-0.36075 -0.92774,-0.94656 h 2.45809 l 0.009,-0.0672 a 2.1000268,2.1000268 0 0 0 0.008,-0.27678 c 0,-0.0228 0,-0.043 0,-0.0625 -0.0343,-0.97477 -0.669102,-1.63179 -1.574682,-1.63179 -0.53072,0 -0.96537,0.20826 -1.25827,0.60462 a 2.0724833,2.0724833 0 0 0 -0.37217,1.20922 c 0,1.07487 0.66843,1.79638 1.66201,1.79638 0.76921,0 1.29858,-0.39098 1.491392,-1.1004 l 0.0222,-0.0806 h -0.718839 z m -1.69695,-1.01508 c 0.0605,-0.48168 0.39031,-0.78802 0.85922,-0.78802 0.35807,0 0.78197,0.20826 0.84109,0.78802 z m -4.07779,-1.05539 c -0.23177,-0.2405 -0.54146,-0.3621 -0.92439,-0.3621 -1.05404,0 -1.5337,0.92775 -1.5337,1.78899 0,0.88408 0.47429,1.77622 1.5337,1.77622 a 1.2313977,1.2313977 0 0 0 0.89685,-0.36411 c 0,0.15317 -0.007,0.29895 -0.0107,0.36142 -0.039,0.57372 -0.3144,0.84042 -0.86729,0.84042 -0.30029,0 -0.64559,-0.10682 -0.7121,-0.40308 l -0.0148,-0.0672 h -0.70807 l 0.0114,0.0947 c 0.0739,0.61268 0.61201,0.99359 1.40405,0.99359 0.69464,0 1.18908,-0.262 1.42958,-0.75644 0.11622,-0.23849 0.17467,-0.58581 0.17467,-1.03255 v -3.16146 h -0.68053 v 0.29156 z m -0.88072,2.56289 c -0.25125,0 -0.83504,-0.11353 -0.83504,-1.1669 0,-0.69195 0.32716,-1.1219 0.85385,-1.1219 0.40711,0 0.84109,0.29492 0.84109,1.1219 0,0.73024 -0.32179,1.1669 -0.86057,1.1669 m 10.726531,-0.4239 c 0,0.55289 -0.458841,1.11047 -1.484001,1.11047 -0.90692,0 -1.446371,-0.39299 -1.51892,-1.1051 l -0.01011,-0.0739 h 0.706729 l 0.0141,0.0564 c 0.0867,0.4286 0.495112,0.51862 0.822272,0.51862 0.358738,0 0.738979,-0.11555 0.738979,-0.43935 0,-0.16392 -0.106821,-0.28081 -0.31776,-0.34665 -0.12496,-0.0369 -0.278799,-0.0806 -0.4407,-0.12562 -0.279469,-0.0779 -0.56901,-0.15989 -0.74703,-0.22102 -0.440701,-0.15787 -0.69397,-0.46555 -0.69397,-0.84377 0,-0.70069 0.682551,-1.01508 1.35837,-1.01508 0.90423,0 1.371799,0.34059 1.43092,1.0406 l 0.006,0.0719 h -0.69464 l -0.009,-0.0551 c -0.0672,-0.40308 -0.47026,-0.46354 -0.704041,-0.46354 -0.201538,0 -0.671801,0.0356 -0.671801,0.36949 0,0.15115 0.129662,0.26267 0.395693,0.33992 0.0793,0.0222 0.197508,0.0524 0.335899,0.088 0.28349,0.0732 0.63686,0.16526 0.814879,0.22639 0.442712,0.15586 0.667092,0.44809 0.667092,0.87334 m 3.317988,0 c 0,0.55288 -0.458829,1.11047 -1.483989,1.11047 -0.906921,0 -1.446372,-0.393 -1.518931,-1.1051 l -0.007,-0.0732 h 0.711428 l 0.008,0.0497 c 0.0867,0.4286 0.49511,0.51862 0.82227,0.51862 0.35874,0 0.73897,-0.11555 0.73897,-0.43935 0,-0.16392 -0.106809,-0.28081 -0.317079,-0.34665 -0.12496,-0.0369 -0.2788,-0.0806 -0.44137,-0.12562 -0.279472,-0.0779 -0.568341,-0.15989 -0.746361,-0.22102 -0.44137,-0.15787 -0.69397,-0.46555 -0.69397,-0.84377 0,-0.70069 0.682551,-1.01508 1.358371,-1.01508 0.904229,0 1.371798,0.34059 1.43025,1.0406 l 0.006,0.0719 h -0.693968 l -0.009,-0.0551 c -0.0672,-0.40308 -0.47026,-0.46354 -0.704041,-0.46354 -0.201541,0 -0.66844,0.0356 -0.66844,0.36949 0,0.15115 0.129661,0.26267 0.395689,0.33992 0.0793,0.0222 0.197512,0.0524 0.335902,0.088 0.28349,0.0732 0.63686,0.16526 0.81488,0.22639 0.442039,0.15586 0.667088,0.44809 0.667088,0.87334" id="path741" style="fill:#4b4e52;fill-opacity:1;stroke-width:0.06717936"/>
    <path inkscape:connector-curvature="0" class="PRGS-branding-text" d="m 29.313634,148.12918 a 0.49511188,0.49511188 0 1 1 0.489741,-0.49512 0.48570676,0.48570676 0 0 1 -0.489741,0.49512 m 0,-0.90625 a 0.41113768,0.41113768 0 1 0 0.403079,0.41113 0.39703002,0.39703002 0 0 0 -0.403079,-0.41113 m -0.0571,0.50317 v 0.16526 h -0.14578 v -0.51997 h 0.243191 a 0.17332275,0.17332275 0 0 1 0.192138,0.18139 0.15182535,0.15182535 0 0 1 -0.1001,0.1572 l 0.118912,0.18138 h -0.164592 l -0.1001,-0.16526 h -0.0457 z m 0.0813,-0.23446 h -0.0813 v 0.11622 h 0.0813 a 0.05777425,0.05777425 0 0 0 0.0672,-0.0571 0.05911784,0.05911784 0 0 0 -0.0672,-0.0598" id="path743" style="fill:#4b4e52;fill-opacity:1;stroke-width:0.06717936"/>
  </g>
</svg>